<mxfile host="app.diagrams.net" modified="2023-06-29T02:28:39.728Z" agent="Mozilla/5.0 (Windows NT 10.0; Win64; x64) AppleWebKit/537.36 (KHTML, like Gecko) Chrome/114.0.0.0 Safari/537.36" version="21.2.7" etag="adf6GMr6aWa1NP-Hzut-" type="github">
  <diagram name="Trang-1" id="a0ZnbeNPIITYKSKqX4Ug">
    <mxGraphModel>
      <root>
        <mxCell id="0" />
        <mxCell id="1" parent="0" />
      </root>
    </mxGraphModel>
  </diagram>
</mxfile>
